<mxfile host="app.diagrams.net" modified="2023-06-08T15:02:27.032Z" agent="Mozilla/5.0 (Windows NT 10.0; Win64; x64) AppleWebKit/537.36 (KHTML, like Gecko) Chrome/114.0.0.0 Safari/537.36" etag="9nA5Hg0eDb4QV7cLxh5w" version="21.3.7" type="device">
  <diagram id="H_7bTFrr5kO4c7YFiEol" name="Page-2">
    <mxGraphModel dx="2250" dy="1832" grid="1" gridSize="10" guides="1" tooltips="1" connect="1" arrows="1" fold="1" page="1" pageScale="1" pageWidth="850" pageHeight="1100" math="0" shadow="0">
      <root>
        <mxCell id="0" />
        <mxCell id="1" parent="0" />
        <mxCell id="qEUqOfiqg52tgKmXdH02-1" value="Ξεναγός&lt;br&gt;" style="shape=umlActor;verticalLabelPosition=bottom;verticalAlign=top;html=1;" parent="1" vertex="1">
          <mxGeometry x="40" y="240" width="40" height="80" as="geometry" />
        </mxCell>
        <mxCell id="qEUqOfiqg52tgKmXdH02-2" value="Φόρμα δημιουργίας Quiz" style="shape=umlBoundary;whiteSpace=wrap;html=1;" parent="1" vertex="1">
          <mxGeometry x="210" y="65" width="100" height="80" as="geometry" />
        </mxCell>
        <mxCell id="qEUqOfiqg52tgKmXdH02-3" value="Συμπληρώθηκαν οι απαραίτητες πληροφορίες;" style="ellipse;shape=umlControl;whiteSpace=wrap;html=1;" parent="1" vertex="1">
          <mxGeometry x="475" y="55" width="100" height="100" as="geometry" />
        </mxCell>
        <mxCell id="qEUqOfiqg52tgKmXdH02-4" value="Συμπληρώνει τίτλο και περγραφή Quiz και επιβαιβεώνει" style="text;html=1;strokeColor=none;fillColor=none;align=center;verticalAlign=middle;whiteSpace=wrap;rounded=0;rotation=-30;" parent="1" vertex="1">
          <mxGeometry x="102.5" y="135" width="60" height="30" as="geometry" />
        </mxCell>
        <mxCell id="qEUqOfiqg52tgKmXdH02-6" value="Ναί" style="text;html=1;strokeColor=none;fillColor=none;align=center;verticalAlign=middle;whiteSpace=wrap;rounded=0;rotation=-25;" parent="1" vertex="1">
          <mxGeometry x="440" y="135" width="60" height="30" as="geometry" />
        </mxCell>
        <mxCell id="qEUqOfiqg52tgKmXdH02-7" value="Φόρμα δημιουργίας ερωτήσεων&amp;nbsp;" style="shape=umlBoundary;whiteSpace=wrap;html=1;" parent="1" vertex="1">
          <mxGeometry x="253.75" y="235" width="90" height="70" as="geometry" />
        </mxCell>
        <mxCell id="qEUqOfiqg52tgKmXdH02-9" value="" style="endArrow=classic;html=1;rounded=0;exitX=1;exitY=0.3333333333333333;exitDx=0;exitDy=0;exitPerimeter=0;entryX=0.018;entryY=0.409;entryDx=0;entryDy=0;entryPerimeter=0;" parent="1" source="qEUqOfiqg52tgKmXdH02-1" target="qEUqOfiqg52tgKmXdH02-7" edge="1">
          <mxGeometry width="50" height="50" relative="1" as="geometry">
            <mxPoint x="400" y="230" as="sourcePoint" />
            <mxPoint x="450" y="180" as="targetPoint" />
          </mxGeometry>
        </mxCell>
        <mxCell id="qEUqOfiqg52tgKmXdH02-10" value="Δημιουργεί ερωτήση-απάντηση και υποβάλει αρχεία" style="text;html=1;strokeColor=none;fillColor=none;align=center;verticalAlign=middle;whiteSpace=wrap;rounded=0;rotation=-5;" parent="1" vertex="1">
          <mxGeometry x="130" y="204" width="110" height="65" as="geometry" />
        </mxCell>
        <mxCell id="qEUqOfiqg52tgKmXdH02-11" value="Τα αρχεία έχουν επιτρεπτό μέγεθος;" style="ellipse;shape=umlControl;whiteSpace=wrap;html=1;" parent="1" vertex="1">
          <mxGeometry x="535" y="204" width="80" height="85" as="geometry" />
        </mxCell>
        <mxCell id="qEUqOfiqg52tgKmXdH02-13" value="Αρχεία χειριστή" style="ellipse;shape=umlEntity;whiteSpace=wrap;html=1;" parent="1" vertex="1">
          <mxGeometry x="720" y="229" width="60" height="60" as="geometry" />
        </mxCell>
        <mxCell id="qEUqOfiqg52tgKmXdH02-15" value="" style="endArrow=classic;html=1;rounded=0;exitX=0.127;exitY=0.9;exitDx=0;exitDy=0;exitPerimeter=0;entryX=0.801;entryY=0.184;entryDx=0;entryDy=0;entryPerimeter=0;" parent="1" source="qEUqOfiqg52tgKmXdH02-11" target="Xnpn-hp9aBuvv2jXBMn_-20" edge="1">
          <mxGeometry width="50" height="50" relative="1" as="geometry">
            <mxPoint x="400" y="450" as="sourcePoint" />
            <mxPoint x="510" y="320" as="targetPoint" />
          </mxGeometry>
        </mxCell>
        <mxCell id="qEUqOfiqg52tgKmXdH02-16" value="Οθόνη προεπισκόπισης Quiz" style="shape=umlBoundary;whiteSpace=wrap;html=1;" parent="1" vertex="1">
          <mxGeometry x="210" y="390" width="110" height="80" as="geometry" />
        </mxCell>
        <mxCell id="qEUqOfiqg52tgKmXdH02-17" value="" style="endArrow=classic;html=1;rounded=0;exitX=0.043;exitY=0.781;exitDx=0;exitDy=0;exitPerimeter=0;entryX=1.021;entryY=0.404;entryDx=0;entryDy=0;entryPerimeter=0;" parent="1" source="Xnpn-hp9aBuvv2jXBMn_-20" target="qEUqOfiqg52tgKmXdH02-16" edge="1">
          <mxGeometry width="50" height="50" relative="1" as="geometry">
            <mxPoint x="352.5" y="444.7999999999997" as="sourcePoint" />
            <mxPoint x="450" y="360" as="targetPoint" />
          </mxGeometry>
        </mxCell>
        <mxCell id="qEUqOfiqg52tgKmXdH02-20" value="Quiz" style="ellipse;shape=umlEntity;whiteSpace=wrap;html=1;" parent="1" vertex="1">
          <mxGeometry x="403.75" y="500" width="70" height="70" as="geometry" />
        </mxCell>
        <mxCell id="qEUqOfiqg52tgKmXdH02-22" value="Εμφάνισε" style="ellipse;shape=umlControl;whiteSpace=wrap;html=1;" parent="1" vertex="1">
          <mxGeometry x="710" y="610" width="60" height="70" as="geometry" />
        </mxCell>
        <mxCell id="qEUqOfiqg52tgKmXdH02-23" value="" style="endArrow=classic;html=1;rounded=0;exitX=1.023;exitY=0.6;exitDx=0;exitDy=0;exitPerimeter=0;entryX=-0.067;entryY=0.542;entryDx=0;entryDy=0;entryPerimeter=0;" parent="1" source="qEUqOfiqg52tgKmXdH02-67" target="qEUqOfiqg52tgKmXdH02-22" edge="1">
          <mxGeometry width="50" height="50" relative="1" as="geometry">
            <mxPoint x="407.1124999999997" y="610.2400000000002" as="sourcePoint" />
            <mxPoint x="400" y="610" as="targetPoint" />
          </mxGeometry>
        </mxCell>
        <mxCell id="qEUqOfiqg52tgKmXdH02-24" value="Λίστα ιστορικού ξεναγήσεων του χειριστή" style="shape=umlBoundary;whiteSpace=wrap;html=1;strokeColor=#000000;" parent="1" vertex="1">
          <mxGeometry x="20" y="520" width="100" height="80" as="geometry" />
        </mxCell>
        <mxCell id="qEUqOfiqg52tgKmXdH02-26" value="Επιλέγει ξενάγηση και επιβεβαιώνει" style="text;html=1;strokeColor=none;fillColor=none;align=center;verticalAlign=middle;whiteSpace=wrap;rounded=0;" parent="1" vertex="1">
          <mxGeometry x="-40" y="430" width="87.5" height="30" as="geometry" />
        </mxCell>
        <mxCell id="qEUqOfiqg52tgKmXdH02-28" value="Σύνδεσε&amp;nbsp; ξενάγηση με Quiz" style="ellipse;shape=umlControl;whiteSpace=wrap;html=1;" parent="1" vertex="1">
          <mxGeometry x="270" y="585" width="75" height="80" as="geometry" />
        </mxCell>
        <mxCell id="qEUqOfiqg52tgKmXdH02-35" value="Όχι" style="text;html=1;strokeColor=none;fillColor=none;align=center;verticalAlign=middle;whiteSpace=wrap;rounded=0;rotation=-10;" parent="1" vertex="1">
          <mxGeometry x="600" y="165" width="60" height="30" as="geometry" />
        </mxCell>
        <mxCell id="qEUqOfiqg52tgKmXdH02-36" value="Όχι" style="text;html=1;strokeColor=none;fillColor=none;align=center;verticalAlign=middle;whiteSpace=wrap;rounded=0;" parent="1" vertex="1">
          <mxGeometry x="475" y="20" width="60" height="30" as="geometry" />
        </mxCell>
        <mxCell id="qEUqOfiqg52tgKmXdH02-38" value="Ξενάγηση" style="ellipse;shape=umlEntity;whiteSpace=wrap;html=1;" parent="1" vertex="1">
          <mxGeometry x="308" y="740" width="70" height="70" as="geometry" />
        </mxCell>
        <mxCell id="qEUqOfiqg52tgKmXdH02-45" value="" style="endArrow=classic;html=1;rounded=0;exitX=0.75;exitY=0.1;exitDx=0;exitDy=0;exitPerimeter=0;entryX=0.188;entryY=0.831;entryDx=0;entryDy=0;entryPerimeter=0;" parent="1" source="qEUqOfiqg52tgKmXdH02-1" target="qEUqOfiqg52tgKmXdH02-2" edge="1">
          <mxGeometry width="50" height="50" relative="1" as="geometry">
            <mxPoint x="400" y="230" as="sourcePoint" />
            <mxPoint x="450" y="180" as="targetPoint" />
          </mxGeometry>
        </mxCell>
        <mxCell id="qEUqOfiqg52tgKmXdH02-46" value="" style="endArrow=classic;html=1;rounded=0;entryX=0;entryY=0;entryDx=0;entryDy=0;exitX=0.961;exitY=0.436;exitDx=0;exitDy=0;exitPerimeter=0;" parent="1" source="qEUqOfiqg52tgKmXdH02-11" target="qEUqOfiqg52tgKmXdH02-13" edge="1">
          <mxGeometry width="50" height="50" relative="1" as="geometry">
            <mxPoint x="400" y="320" as="sourcePoint" />
            <mxPoint x="450" y="270" as="targetPoint" />
          </mxGeometry>
        </mxCell>
        <mxCell id="qEUqOfiqg52tgKmXdH02-47" value="" style="endArrow=classic;html=1;rounded=0;entryX=0.5;entryY=0;entryDx=0;entryDy=0;exitX=0.555;exitY=0.981;exitDx=0;exitDy=0;exitPerimeter=0;" parent="1" source="qEUqOfiqg52tgKmXdH02-28" target="qEUqOfiqg52tgKmXdH02-38" edge="1">
          <mxGeometry width="50" height="50" relative="1" as="geometry">
            <mxPoint x="400" y="650" as="sourcePoint" />
            <mxPoint x="450" y="600" as="targetPoint" />
          </mxGeometry>
        </mxCell>
        <mxCell id="qEUqOfiqg52tgKmXdH02-49" value="Εμφάνισε" style="ellipse;shape=umlControl;whiteSpace=wrap;html=1;strokeColor=#FF0000;" parent="1" vertex="1">
          <mxGeometry x="430" y="-50" width="60" height="70" as="geometry" />
        </mxCell>
        <mxCell id="qEUqOfiqg52tgKmXdH02-51" value="Εμφάνισε" style="ellipse;shape=umlControl;whiteSpace=wrap;html=1;strokeColor=#FF0000;" parent="1" vertex="1">
          <mxGeometry x="690" y="95" width="60" height="70" as="geometry" />
        </mxCell>
        <mxCell id="qEUqOfiqg52tgKmXdH02-52" value="" style="endArrow=classic;html=1;rounded=0;exitX=0.9;exitY=0.273;exitDx=0;exitDy=0;exitPerimeter=0;entryX=-0.016;entryY=0.736;entryDx=0;entryDy=0;entryPerimeter=0;strokeColor=#FF0000;" parent="1" source="qEUqOfiqg52tgKmXdH02-11" target="qEUqOfiqg52tgKmXdH02-51" edge="1">
          <mxGeometry width="50" height="50" relative="1" as="geometry">
            <mxPoint x="400" y="290" as="sourcePoint" />
            <mxPoint x="450" y="240" as="targetPoint" />
          </mxGeometry>
        </mxCell>
        <mxCell id="qEUqOfiqg52tgKmXdH02-54" value="" style="endArrow=classic;html=1;rounded=0;strokeColor=#FF0000;exitX=0.247;exitY=0.194;exitDx=0;exitDy=0;exitPerimeter=0;entryX=0.864;entryY=0.895;entryDx=0;entryDy=0;entryPerimeter=0;" parent="1" source="qEUqOfiqg52tgKmXdH02-3" target="qEUqOfiqg52tgKmXdH02-49" edge="1">
          <mxGeometry width="50" height="50" relative="1" as="geometry">
            <mxPoint x="610" y="110" as="sourcePoint" />
            <mxPoint x="680" y="-30" as="targetPoint" />
          </mxGeometry>
        </mxCell>
        <mxCell id="qEUqOfiqg52tgKmXdH02-57" value="Μήνυμα μη επιτρεπτού μεγέθους" style="shape=umlBoundary;whiteSpace=wrap;html=1;strokeColor=#FF0000;" parent="1" vertex="1">
          <mxGeometry x="790" width="100" height="80" as="geometry" />
        </mxCell>
        <mxCell id="qEUqOfiqg52tgKmXdH02-58" value="" style="endArrow=classic;html=1;rounded=0;entryX=0.284;entryY=0.884;entryDx=0;entryDy=0;entryPerimeter=0;strokeColor=#FF0000;" parent="1" source="qEUqOfiqg52tgKmXdH02-51" target="qEUqOfiqg52tgKmXdH02-57" edge="1">
          <mxGeometry width="50" height="50" relative="1" as="geometry">
            <mxPoint x="140" y="440" as="sourcePoint" />
            <mxPoint x="190" y="390" as="targetPoint" />
          </mxGeometry>
        </mxCell>
        <mxCell id="qEUqOfiqg52tgKmXdH02-60" value="Μήνυμα έλλειψης" style="shape=umlBoundary;whiteSpace=wrap;html=1;strokeColor=#FF0000;" parent="1" vertex="1">
          <mxGeometry x="253.75" y="-60" width="90" height="70" as="geometry" />
        </mxCell>
        <mxCell id="qEUqOfiqg52tgKmXdH02-63" value="Μήνυμα επιτυχίας" style="shape=umlBoundary;whiteSpace=wrap;html=1;" parent="1" vertex="1">
          <mxGeometry x="870" y="585" width="80" height="65" as="geometry" />
        </mxCell>
        <mxCell id="qEUqOfiqg52tgKmXdH02-64" value="" style="endArrow=classic;html=1;rounded=0;entryX=-0.034;entryY=0.649;entryDx=0;entryDy=0;entryPerimeter=0;exitX=1.047;exitY=0.55;exitDx=0;exitDy=0;exitPerimeter=0;" parent="1" source="qEUqOfiqg52tgKmXdH02-22" target="qEUqOfiqg52tgKmXdH02-63" edge="1">
          <mxGeometry width="50" height="50" relative="1" as="geometry">
            <mxPoint x="1017.5999999999999" y="566.1799999999998" as="sourcePoint" />
            <mxPoint x="880" y="590" as="targetPoint" />
          </mxGeometry>
        </mxCell>
        <mxCell id="qEUqOfiqg52tgKmXdH02-66" value="" style="endArrow=classic;html=1;rounded=0;exitX=1.013;exitY=0.581;exitDx=0;exitDy=0;exitPerimeter=0;entryX=-0.036;entryY=0.513;entryDx=0;entryDy=0;entryPerimeter=0;" parent="1" source="qEUqOfiqg52tgKmXdH02-2" target="qEUqOfiqg52tgKmXdH02-3" edge="1">
          <mxGeometry width="50" height="50" relative="1" as="geometry">
            <mxPoint x="540" y="410" as="sourcePoint" />
            <mxPoint x="590" y="360" as="targetPoint" />
          </mxGeometry>
        </mxCell>
        <mxCell id="qEUqOfiqg52tgKmXdH02-67" value="Καταχώρησε" style="ellipse;shape=umlControl;whiteSpace=wrap;html=1;" parent="1" vertex="1">
          <mxGeometry x="540" y="600" width="80" height="80" as="geometry" />
        </mxCell>
        <mxCell id="8aLGnSTT1w9Fb0R9AmUb-1" value="" style="endArrow=classic;html=1;rounded=0;strokeColor=#FF0000;exitX=0.029;exitY=0.423;exitDx=0;exitDy=0;exitPerimeter=0;entryX=1.019;entryY=0.547;entryDx=0;entryDy=0;entryPerimeter=0;" parent="1" source="qEUqOfiqg52tgKmXdH02-49" target="qEUqOfiqg52tgKmXdH02-60" edge="1">
          <mxGeometry width="50" height="50" relative="1" as="geometry">
            <mxPoint x="645" y="111" as="sourcePoint" />
            <mxPoint x="600" y="54" as="targetPoint" />
          </mxGeometry>
        </mxCell>
        <mxCell id="8aLGnSTT1w9Fb0R9AmUb-6" value="" style="endArrow=classic;html=1;rounded=0;entryX=0.557;entryY=-0.008;entryDx=0;entryDy=0;entryPerimeter=0;" parent="1" target="qEUqOfiqg52tgKmXdH02-24" edge="1">
          <mxGeometry width="50" height="50" relative="1" as="geometry">
            <mxPoint x="60" y="350" as="sourcePoint" />
            <mxPoint x="450" y="490" as="targetPoint" />
          </mxGeometry>
        </mxCell>
        <mxCell id="8aLGnSTT1w9Fb0R9AmUb-7" value="" style="endArrow=classic;html=1;rounded=0;" parent="1" source="qEUqOfiqg52tgKmXdH02-24" target="qEUqOfiqg52tgKmXdH02-28" edge="1">
          <mxGeometry width="50" height="50" relative="1" as="geometry">
            <mxPoint x="400" y="620" as="sourcePoint" />
            <mxPoint x="450" y="570" as="targetPoint" />
          </mxGeometry>
        </mxCell>
        <mxCell id="8aLGnSTT1w9Fb0R9AmUb-9" value="" style="endArrow=classic;html=1;rounded=0;exitX=0.887;exitY=0.181;exitDx=0;exitDy=0;entryX=0;entryY=0.5;entryDx=0;entryDy=0;exitPerimeter=0;" parent="1" source="qEUqOfiqg52tgKmXdH02-28" target="qEUqOfiqg52tgKmXdH02-20" edge="1">
          <mxGeometry width="50" height="50" relative="1" as="geometry">
            <mxPoint x="400" y="620" as="sourcePoint" />
            <mxPoint x="450" y="570" as="targetPoint" />
          </mxGeometry>
        </mxCell>
        <mxCell id="8aLGnSTT1w9Fb0R9AmUb-10" value="" style="endArrow=classic;html=1;rounded=0;exitX=1.001;exitY=0.648;exitDx=0;exitDy=0;exitPerimeter=0;entryX=0.003;entryY=0.615;entryDx=0;entryDy=0;entryPerimeter=0;" parent="1" source="qEUqOfiqg52tgKmXdH02-28" target="qEUqOfiqg52tgKmXdH02-67" edge="1">
          <mxGeometry width="50" height="50" relative="1" as="geometry">
            <mxPoint x="400" y="620" as="sourcePoint" />
            <mxPoint x="450" y="570" as="targetPoint" />
          </mxGeometry>
        </mxCell>
        <mxCell id="8aLGnSTT1w9Fb0R9AmUb-11" value="" style="endArrow=classic;html=1;rounded=0;entryX=1;entryY=0.5;entryDx=0;entryDy=0;exitX=0.253;exitY=0.162;exitDx=0;exitDy=0;exitPerimeter=0;" parent="1" source="qEUqOfiqg52tgKmXdH02-67" target="qEUqOfiqg52tgKmXdH02-20" edge="1">
          <mxGeometry width="50" height="50" relative="1" as="geometry">
            <mxPoint x="400" y="620" as="sourcePoint" />
            <mxPoint x="450" y="570" as="targetPoint" />
          </mxGeometry>
        </mxCell>
        <mxCell id="Xnpn-hp9aBuvv2jXBMn_-2" value="Επιλέγει να δεί προεπισκόπηση και επιβεβαιώνει&lt;br&gt;" style="text;html=1;strokeColor=none;fillColor=none;align=center;verticalAlign=middle;whiteSpace=wrap;rounded=0;rotation=30;" parent="1" vertex="1">
          <mxGeometry x="124" y="318" width="100" height="35" as="geometry" />
        </mxCell>
        <mxCell id="Xnpn-hp9aBuvv2jXBMn_-13" value="Ναί" style="text;html=1;strokeColor=none;fillColor=none;align=center;verticalAlign=middle;whiteSpace=wrap;rounded=0;rotation=-65;" parent="1" vertex="1">
          <mxGeometry x="495" y="280" width="60" height="30" as="geometry" />
        </mxCell>
        <mxCell id="Xnpn-hp9aBuvv2jXBMn_-17" value="" style="endArrow=classic;html=1;rounded=0;entryX=-0.001;entryY=0.428;entryDx=0;entryDy=0;entryPerimeter=0;exitX=1.004;exitY=0.559;exitDx=0;exitDy=0;exitPerimeter=0;" parent="1" source="qEUqOfiqg52tgKmXdH02-7" target="qEUqOfiqg52tgKmXdH02-11" edge="1">
          <mxGeometry width="50" height="50" relative="1" as="geometry">
            <mxPoint x="340" y="270" as="sourcePoint" />
            <mxPoint x="510" y="240" as="targetPoint" />
          </mxGeometry>
        </mxCell>
        <mxCell id="Xnpn-hp9aBuvv2jXBMn_-18" value="Ναί" style="text;html=1;strokeColor=none;fillColor=none;align=center;verticalAlign=middle;whiteSpace=wrap;rounded=0;rotation=-15;" parent="1" vertex="1">
          <mxGeometry x="343.75" y="390" width="60" height="30" as="geometry" />
        </mxCell>
        <mxCell id="Xnpn-hp9aBuvv2jXBMn_-20" value="Συμπληρώθηκαν οι απαραίτητες πληροφορίες;" style="ellipse;shape=umlControl;whiteSpace=wrap;html=1;" parent="1" vertex="1">
          <mxGeometry x="435" y="340" width="100" height="100" as="geometry" />
        </mxCell>
        <mxCell id="Xnpn-hp9aBuvv2jXBMn_-21" value="Ενεργοποίησε" style="ellipse;shape=umlControl;whiteSpace=wrap;html=1;strokeColor=#000000;" parent="1" vertex="1">
          <mxGeometry x="370" y="160" width="90" height="80" as="geometry" />
        </mxCell>
        <mxCell id="Xnpn-hp9aBuvv2jXBMn_-22" value="" style="endArrow=classic;html=1;rounded=0;exitX=0.206;exitY=0.901;exitDx=0;exitDy=0;exitPerimeter=0;" parent="1" source="qEUqOfiqg52tgKmXdH02-3" target="Xnpn-hp9aBuvv2jXBMn_-21" edge="1">
          <mxGeometry width="50" height="50" relative="1" as="geometry">
            <mxPoint x="460" y="310" as="sourcePoint" />
            <mxPoint x="510" y="260" as="targetPoint" />
          </mxGeometry>
        </mxCell>
        <mxCell id="Xnpn-hp9aBuvv2jXBMn_-23" value="" style="endArrow=classic;html=1;rounded=0;exitX=0.068;exitY=0.88;exitDx=0;exitDy=0;exitPerimeter=0;entryX=0.969;entryY=0.3;entryDx=0;entryDy=0;entryPerimeter=0;" parent="1" source="Xnpn-hp9aBuvv2jXBMn_-21" target="qEUqOfiqg52tgKmXdH02-7" edge="1">
          <mxGeometry width="50" height="50" relative="1" as="geometry">
            <mxPoint x="460" y="310" as="sourcePoint" />
            <mxPoint x="510" y="260" as="targetPoint" />
          </mxGeometry>
        </mxCell>
        <mxCell id="Xnpn-hp9aBuvv2jXBMn_-24" value="Μήνυμα έλλειψης" style="shape=umlBoundary;whiteSpace=wrap;html=1;strokeColor=#FF0000;" parent="1" vertex="1">
          <mxGeometry x="762.5" y="400" width="90" height="70" as="geometry" />
        </mxCell>
        <mxCell id="Xnpn-hp9aBuvv2jXBMn_-25" value="Εμφάνισε" style="ellipse;shape=umlControl;whiteSpace=wrap;html=1;strokeColor=#FF0000;" parent="1" vertex="1">
          <mxGeometry x="630" y="410" width="60" height="70" as="geometry" />
        </mxCell>
        <mxCell id="Xnpn-hp9aBuvv2jXBMn_-26" value="" style="endArrow=classic;html=1;rounded=0;strokeColor=#FF0000;" parent="1" source="Xnpn-hp9aBuvv2jXBMn_-20" target="Xnpn-hp9aBuvv2jXBMn_-25" edge="1">
          <mxGeometry width="50" height="50" relative="1" as="geometry">
            <mxPoint x="460" y="200" as="sourcePoint" />
            <mxPoint x="510" y="150" as="targetPoint" />
          </mxGeometry>
        </mxCell>
        <mxCell id="Xnpn-hp9aBuvv2jXBMn_-27" value="" style="endArrow=classic;html=1;rounded=0;entryX=-0.026;entryY=0.533;entryDx=0;entryDy=0;entryPerimeter=0;exitX=1.013;exitY=0.39;exitDx=0;exitDy=0;exitPerimeter=0;strokeColor=#FF0000;" parent="1" source="Xnpn-hp9aBuvv2jXBMn_-25" target="Xnpn-hp9aBuvv2jXBMn_-24" edge="1">
          <mxGeometry width="50" height="50" relative="1" as="geometry">
            <mxPoint x="460" y="200" as="sourcePoint" />
            <mxPoint x="510" y="150" as="targetPoint" />
          </mxGeometry>
        </mxCell>
        <mxCell id="Xnpn-hp9aBuvv2jXBMn_-28" value="Όχι" style="text;html=1;strokeColor=none;fillColor=none;align=center;verticalAlign=middle;whiteSpace=wrap;rounded=0;rotation=15;" parent="1" vertex="1">
          <mxGeometry x="575" y="390" width="60" height="30" as="geometry" />
        </mxCell>
        <mxCell id="Xnpn-hp9aBuvv2jXBMn_-30" value="" style="endArrow=classic;html=1;rounded=0;entryX=0.826;entryY=0.94;entryDx=0;entryDy=0;entryPerimeter=0;exitX=0.009;exitY=0.397;exitDx=0;exitDy=0;exitPerimeter=0;strokeColor=#FF0000;" parent="1" source="Xnpn-hp9aBuvv2jXBMn_-20" target="qEUqOfiqg52tgKmXdH02-7" edge="1">
          <mxGeometry width="50" height="50" relative="1" as="geometry">
            <mxPoint x="460" y="370" as="sourcePoint" />
            <mxPoint x="510" y="320" as="targetPoint" />
          </mxGeometry>
        </mxCell>
        <mxCell id="Xnpn-hp9aBuvv2jXBMn_-31" value="Ναί" style="text;html=1;strokeColor=none;fillColor=none;align=center;verticalAlign=middle;whiteSpace=wrap;rounded=0;rotation=30;" parent="1" vertex="1">
          <mxGeometry x="370" y="305" width="60" height="30" as="geometry" />
        </mxCell>
        <mxCell id="Xnpn-hp9aBuvv2jXBMn_-32" value="" style="endArrow=classic;html=1;rounded=0;exitX=0.723;exitY=0.747;exitDx=0;exitDy=0;exitPerimeter=0;entryX=0.264;entryY=0.204;entryDx=0;entryDy=0;entryPerimeter=0;" parent="1" source="qEUqOfiqg52tgKmXdH02-1" target="qEUqOfiqg52tgKmXdH02-16" edge="1">
          <mxGeometry width="50" height="50" relative="1" as="geometry">
            <mxPoint x="460" y="450" as="sourcePoint" />
            <mxPoint x="510" y="400" as="targetPoint" />
          </mxGeometry>
        </mxCell>
        <mxCell id="Xnpn-hp9aBuvv2jXBMn_-33" value="Εμφάνισε" style="ellipse;shape=umlControl;whiteSpace=wrap;html=1;strokeColor=#000000;" parent="1" vertex="1">
          <mxGeometry x="180" y="480" width="60" height="70" as="geometry" />
        </mxCell>
        <mxCell id="Xnpn-hp9aBuvv2jXBMn_-34" value="" style="endArrow=classic;html=1;rounded=0;exitX=0.608;exitY=1.018;exitDx=0;exitDy=0;exitPerimeter=0;entryX=1.011;entryY=0.564;entryDx=0;entryDy=0;entryPerimeter=0;" parent="1" source="qEUqOfiqg52tgKmXdH02-16" target="Xnpn-hp9aBuvv2jXBMn_-33" edge="1">
          <mxGeometry width="50" height="50" relative="1" as="geometry">
            <mxPoint x="460" y="450" as="sourcePoint" />
            <mxPoint x="510" y="400" as="targetPoint" />
          </mxGeometry>
        </mxCell>
        <mxCell id="Xnpn-hp9aBuvv2jXBMn_-35" value="" style="endArrow=classic;html=1;rounded=0;entryX=1.023;entryY=0.38;entryDx=0;entryDy=0;entryPerimeter=0;exitX=0.104;exitY=0.857;exitDx=0;exitDy=0;exitPerimeter=0;" parent="1" source="Xnpn-hp9aBuvv2jXBMn_-33" target="qEUqOfiqg52tgKmXdH02-24" edge="1">
          <mxGeometry width="50" height="50" relative="1" as="geometry">
            <mxPoint x="460" y="450" as="sourcePoint" />
            <mxPoint x="510" y="400" as="targetPoint" />
          </mxGeometry>
        </mxCell>
      </root>
    </mxGraphModel>
  </diagram>
</mxfile>
